<svg version="1.0" xmlns="http://www.w3.org/2000/svg" width="2780" height="2780" viewBox="0 0 2085 2085"><path d="M791.7 138.6c-.1.1-5.8.5-12.7.8-13.4.7-17 1-29.5 2.7-12.8 1.7-14.5 1.9-24.6 4-5.2 1.1-10.6 2.1-11.9 2.4-5.6 1.1-28.8 7.9-39.3 11.5-67.1 23.1-128.6 67.2-173.8 124.5-32.9 41.8-57 91.6-69.8 144.3-3.3 13.7-4.4 19.2-4.5 23.7l-.1 3h615.9c426.1 0 616-.3 616.3-1 1.5-4.1-12-55.1-19.1-72-.7-1.7-2.8-6.6-4.6-11-14.7-35.3-36.9-71.3-61.8-100.3-7.8-9.2-31.2-32.6-39.8-40-14-12.1-41.4-32-51.9-37.8-1.1-.6-4.9-2.8-8.5-4.9-36.9-21.5-86.7-39-128.9-45.1-2.5-.4-5.5-.8-6.6-1-1.1-.2-4.5-.6-7.5-.9-3-.4-7.1-.8-9-1-11.6-1.5-54.2-1.7-278.8-1.9H791.7zM419.9 504.5c-.5.4-.4 13.2.5 80.5.3 19 .5 40.4.5 47.5l.1 13h1242.9l-.5-46.5c-.4-40.6-1.2-92-1.3-94.3-.1-.8-1241.4-1-1242.2-.2zm6.8 189.3c-2.5.3-2.7.6-2.2 3.5 1.1 6.6 1.5 9.4 2.5 16.8.6 4.1 1.2 8.4 1.4 9.5.2 1 .7 4.1 1 6.9.7 5 1 6.7 2 13.8.4 2.1.8 5.9 1.1 8.5.3 2.6.8 5.4 1 6.2.2.8.7 4 1 7 .3 3 .8 6.2 1 7 .2.8.6 3.3.9 5.5.3 2.2 1.1 7.4 1.7 11.5.6 4.1 1.2 8.6 1.4 10 .2 1.4 1.3 9 2.5 17 1.1 8 2.3 16.1 2.6 18 .3 1.9.7 4.6.9 6 .3 1.4.7 4.7 1.1 7.5.3 2.7.8 5.9 1 6.9.2 1.1.8 5.6 1.4 10 .6 4.5 1.3 9.3 1.6 10.8.2 1.6.6 4 .8 5.5.3 1.6 1 6.4 1.6 10.8.6 4.4 1.2 9.1 1.5 10.5.2 1.4.6 4.3 1 6.5.3 2.2.7 5.3 1 7 .3 1.6.7 4.8 1 7 .3 2.2 1 7.1 1.6 11 .6 3.8 1.2 8.3 1.4 10 .3 1.6.7 4.8 1 7 1.2 7.5 2.4 16 3 21.1.3 2.2.7 4.6 1 5.4.2.8.6 4 1 7 .3 3 .7 6.6 1 8 .3 1.4.8 4.5 1.1 7 .3 2.5.7 5.6.9 6.9.2 1.3.7 4.5 1 7 .4 2.5 1 6.8 1.5 9.6.5 2.7 1.2 7.2 1.5 10 .3 2.7.8 6.1 1 7.5.3 1.4.7 4.3 1 6.5.9 6.2 1.4 9.7 2 14 .4 2.2.8 5.1 1 6.5.2 1.4.6 4.5 1 7s.8 5.6 1 7c1.4 10.1 2.7 18.9 3 21 .3 1.4.7 4.3 1 6.5.9 6.3 1.7 11.9 2 13.6.2.9.6 4 1 7 .3 3 .8 6.1 1 6.9.2.8.7 4 1 7 .3 3 .8 6.2 1 7 .2.8.6 3.5.9 6 .3 2.5.8 5.6 1.1 7 .3 1.4.7 4.4 1 6.7.6 5 1.4 10.9 2 14.3.2 1.4.7 4.5 1 7 .3 2.5.8 5.6 1 7 .2 1.4.7 4.5 1 7 .4 2.5.8 5.6 1 7 1.5 9.3 2.5 16.2 3 20.5.3 2.7.8 6.1 1 7.5.6 3.3 1.3 7.6 1.9 12.5.3 2.2 1.5 10.3 2.6 18 1.2 7.7 2.3 15.6 2.6 17.5.2 1.9.6 4.8.9 6.5.3 1.6.7 4.8 1 7 .4 2.2.8 5.1 1.1 6.5.2 1.4.6 4.5.9 7 .3 2.5.8 5.4 1 6.5.2 1.1.7 4.2 1 7 .3 2.7 1 7.5 1.5 10.5 1 6 1.6 9.9 2.6 17.5.3 2.7.7 5.7.9 6.5.1.8.6 4 1 7s.9 6.4 1.1 7.5c.5 2.3 1.5 9.8 1.9 13.5.2 1.4.6 4.3.9 6.5.4 2.2.9 5.8 1.2 8 .4 2.2.8 4.9 1 6 .1 1.1.8 5.6 1.4 10 1.2 8.3 1.4 9.9 2.6 17.5.3 2.5.8 5.4.9 6.5 1.5 10.5 2.6 18.4 3 20.5.2 1.4.9 6.1 1.5 10.5s1.3 9.1 1.5 10.4c.2 1.3.7 4.5 1.1 7 .3 2.5.8 5.7 1 7.1.2 1.4.7 4.5.9 7 .3 2.5.7 5.4 1 6.5.2 1.1.7 4.2 1 7 .4 2.7.8 5.7 1 6.5.2.8.7 3.7 1 6.5.3 2.7.8 6.1 1 7.5.3 1.4.7 4.1 1 6 .2 1.9 1.2 8.4 2 14.5.9 6 1.8 12.6 2.1 14.5.5 3.5 2.2 15.5 2.9 19.9 1.1 6.8 2.1 13.6 2.9 20.6.4 2.7.9 6.1 1.1 7.5.3 1.4.7 4.3 1 6.5.3 2.2.8 5.1 1 6.5.3 1.4.7 4.7 1.1 7.5.3 2.7.8 5.9 1 6.9.2 1.1.8 5.4 1.4 9.5.6 4.2 1.2 8.7 1.4 10.1.2 1.4.7 4.7 1.1 7.3.4 2.7.8 5.7 1 6.6.2 1 .6 4.2 1 7.2.3 3 .8 6.1 1 6.9.2.8.6 3.7 1 6.5.3 2.7.8 6.1 1 7.5.3 1.4.7 4.1.9 6 .3 1.9.7 5.3 1 7.5.4 2.2.9 5.8 1.2 8 .4 2.2.8 4.9 1 6 .1 1.1 1.5 10.3 2.9 20.5s2.8 19.8 3.1 21.5c1 6.5 1.3 8.1 1.8 12 .3 2.2.8 5.8 1.1 8 .2 2.2.7 5.1 1 6.5.3 1.4.7 4.7 1 7.5.3 2.7.8 5.7 1 6.5.2.8.7 3.7 1 6.5.3 2.7.7 5.7 1 6.5.2.8.6 4.2.9 7.5 3.1 32.6 17.9 59.1 43.9 78.8 7.6 5.8 18.2 11.8 25 14.3 10.6 3.8 12.8 4.4 21.2 6 8.3 1.6 20 1.7 142.5 1.5 73.4-.1 231.8-.4 352.1-.6 120.2-.2 220.5-.6 223-1 20.9-2.9 39.7-10.6 55.8-23 3.8-2.8 20.1-19.6 20.1-20.5 0-.5.6-1.5 1.3-2.2 6.8-7.2 17.4-32.5 19.1-45.6 1.7-12.8 2-14.5 3.1-21.7.3-2.2.7-5.4.9-7 1-7.7 1.8-13.2 2.1-15 .6-3.9 1.5-10.1 2-14 .3-2.2 1-6.7 1.5-10 .7-5.1 1.3-9 2.5-18.5.1-.8.5-3.3.8-5.5.8-4.8 1.4-9.3 2.2-16 .3-2.8.8-6.1 1-7.5.3-1.4.7-4.3 1-6.5.8-5.5 1.7-11.6 2.1-13.9.2-1 .5-3.7.8-6 .4-3.3 4.3-30.7 6.1-43.1.8-5.6 1.5-10.5 1.9-13.8.3-1.7 1.2-8.2 2.1-14.2 1.5-10.8 2.2-15.5 3.1-22.5.2-1.9.9-6.4 1.4-10 .5-3.6 1.2-8.1 1.4-10 .3-1.9 1.2-8.5 2.1-14.5.9-6.1 1.8-12.8 2.1-15 .2-2.2.7-5.1.9-6.5.2-1.4.7-4.5 1-7 .4-2.5.8-5.6 1-7 .2-1.4.7-4.5 1-7 .3-2.5.8-5.6 1-7 .2-1.4.7-5 1-8 .3-3 .8-6.2 1-7 .2-.8.6-3.5.9-6 .3-2.5.8-5.4 1-6.5.2-1.1.7-4.9 1.1-8.5.4-3.6.8-6.7 1-7 .2-.3.6-3.2.9-6.4.4-3.2.8-6.2 1-6.5.2-.3.6-3.3 1-6.6.3-3.3.8-7.1 1-8.5.7-3.7 1.4-8.9 2.1-14.5.4-2.8.8-5.7 1-6.5.2-.8.7-4.2 1.1-7.5.3-3.3.8-6.9 1-8 .2-1.1.7-4 1-6.5.3-2.5.7-5.2.9-6 .2-1.4 1-7 2-14.5.2-1.7.8-5.9 1.4-9.5.5-3.6 1.3-8.9 1.6-11.9.4-3 .8-6.1 1-7 .1-.9.6-3.9.9-6.6.4-2.8.9-6.1 1.1-7.5.2-1.4.9-6.3 1.6-11 .6-4.7 1.3-9.4 1.4-10.5.2-1.1.6-4.3 1-7 .3-2.8 1-7.5 1.5-10.5s1.1-7.1 1.4-9c.5-4.3 1.6-12.7 2.2-16 .2-1.4.6-4.5 1-7 .3-2.5.7-5.6 1-7 .2-1.4.8-6.1 1.4-10.5.6-4.4 1.3-9.1 1.5-10.5.2-1.4.9-6.1 1.5-10.6.6-4.4 1.2-9 1.4-10.1.3-1.1.7-4.4 1.1-7.4.3-3 .8-6.5 1-7.9.2-1.4.7-4.5 1-7 .4-2.5.8-5.6 1-7 .2-1.4.6-4.5 1-7 .3-2.5.8-5.6 1-7 .2-1.4.7-4.5 1-7 .3-2.5.8-5.2 1-6 .2-.8.6-4 .9-7 .3-3 .8-6.4 1-7.5.2-1.1.7-4.3 1-7 1.2-8.4 1.7-11.9 2.1-14.5.3-1.4.7-4.8 1.1-7.5.3-2.8.7-6.1.9-7.5.8-4.9 5.5-38.6 6-42.5.3-2.2.8-5.1 1-6.5.2-1.4.7-4.5 1-7 .4-2.5.8-5.6 1-7 .2-1.4.7-4.5 1-7 .7-5.3 1.2-8.9 3-21 .2-1.4.7-4.9 1-7.9.3-3 .8-5.7 1-6 .2-.4.6-3.5 1-7.1.3-3.6.8-7.2 1-8 .2-.8.7-3.5 1-6 .9-6.8 2.6-19.1 3.1-22.5.3-1.7.7-4.6.9-6.5.8-6.3 2.4-17.4 3.4-24 .6-3.6 1.3-8.5 1.6-11 .3-2.5 1.2-9.2 2.1-15 1.6-11.5 2-13.8 3.5-25 .6-4.1 1.2-8.6 1.4-10 .2-1.4.7-4.8 1.1-7.5.3-2.8.8-5.9 1-7 .3-1.1.7-3.8.9-6 .3-2.2 1-7.2 1.5-11 .6-3.9 1.3-8.8 1.5-11 .3-2.2.7-5.1 1-6.5.2-1.4.7-4.5 1-7 .8-6.6 1.6-12.4 2.9-20.8.6-3.4 2.4-16.3 3.1-22.2.3-2.5.8-5.2 1-6 .2-.8.6-4 1-7.1.3-3.1.7-6.5.9-7.5.2-1.1.7-4.4 1.1-7.4.4-3 .8-6.2 1-7 .1-.8.6-3.8.9-6.5.4-2.8.9-6.1 1.1-7.5.2-1.4.9-6.1 1.5-10.6.6-4.4 1.2-8.9 1.4-10 .2-1 .7-4.4 1-7.5.4-3.1.8-6.6 1-7.6.3-1.1.7-4.3 1.1-7.1.6-5.2.6-5.2-2.2-5.3-9.2-.2-1227.3-.3-1229.6-.1z"/></svg>